<svg width="25" height="25" viewBox="0 0 25 25" fill="none" xmlns="http://www.w3.org/2000/svg">
<path d="M8.16914 6.69073L18.5829 17.5369L14.3308 21.9643H22.3258C22.6513 21.9643 22.9634 22.0989 23.1936 22.3386C23.4237 22.5783 23.553 22.9034 23.553 23.2424C23.553 23.5814 23.4237 23.9065 23.1936 24.1462C22.9634 24.3859 22.6513 24.5205 22.3258 24.5205H8.6956C8.20756 24.5201 7.73967 24.3178 7.3948 23.9581L1.22703 17.5369C0.999013 17.2995 0.818138 17.0176 0.694734 16.7074C0.571329 16.3972 0.507812 16.0647 0.507812 15.729C0.507812 15.3932 0.571329 15.0607 0.694734 14.7505C0.818138 14.4403 0.999013 14.1584 1.22703 13.9211L8.16914 6.69073ZM16.8465 1.26894L23.7886 8.49799C24.0166 8.73537 24.1975 9.01722 24.3209 9.32742C24.4443 9.63763 24.5078 9.97011 24.5078 10.3059C24.5078 10.6417 24.4443 10.9742 24.3209 11.2844C24.1975 11.5946 24.0166 11.8764 23.7886 12.1138L20.3182 15.7283L9.90559 4.88347L13.376 1.26894C13.8363 0.789719 14.4605 0.520508 15.1113 0.520508C15.7621 0.520508 16.3862 0.789719 16.8465 1.26894Z" fill="black"/>
</svg>
